<?xml version="1.0" encoding="utf-8"?>
<!-- Generator: Adobe Illustrator 17.1.0, SVG Export Plug-In . SVG Version: 6.00 Build 0)  -->
<!DOCTYPE svg PUBLIC "-//W3C//DTD SVG 1.1//EN" "http://www.w3.org/Graphics/SVG/1.1/DTD/svg11.dtd">
<svg version="1.1" id="Layer_1" xmlns="http://www.w3.org/2000/svg" xmlns:xlink="http://www.w3.org/1999/xlink" x="0px" y="0px"
	 viewBox="0 0 50 50" enable-background="new 0 0 50 50" xml:space="preserve">
<g>
	<path fill="#FFFFFF" d="M25,49.6c-13.6,0-24.6-11-24.6-24.6S11.4,0.4,25,0.4s24.6,11,24.6,24.6S38.6,49.6,25,49.6z M25,4.4
		C13.6,4.4,4.4,13.6,4.4,25c0,11.4,9.2,20.6,20.6,20.6c11.4,0,20.6-9.2,20.6-20.6C45.6,13.6,36.4,4.4,25,4.4z"/>
</g>
<g>
	<g>
		<path fill="#FFFFFF" d="M35.8,12.7c-1.2,1.2-2.3,2.5-3.5,3.7c-0.1,0.2-0.4,0.3-0.4,0.5c-0.1,0.2,0,0.5,0,0.7c0.3,0,0.6,0.1,0.7,0
			c0.8-0.6,1.6-1.3,2.3-2c0.7-0.6,1.4-1.2,2.1-1.8c0.2,0.3,0.4,0.5,0.7,0.8c-1,1.1-2,2.4-3,3.6c-0.2,0.2-0.4,0.4-0.6,0.6
			c-0.3,0.3-0.5,0.6-0.1,0.9c0.3,0.3,0.6,0.1,0.9-0.2c1.2-1.1,2.3-2.2,3.5-3.3c0.2-0.2,0.3-0.3,0.5-0.5c0.5,0.6,0.7,1.2,0.3,1.8
			c-0.3,0.4-0.5,0.9-0.9,1.3c-1.3,1.3-2.3,2.8-4,3.7c-0.9,0.5-1.9,0.7-2.9,0.3c-0.5-0.2-0.7,0-1,0.3c-4.4,4.7-8.9,9.3-13.3,14
			c-0.7,0.8-1.1,0.6-1.8,0.2c-0.3-0.2-0.6-0.6-0.9-0.9c-0.4-0.7-0.4-1,0.2-1.6c4.7-4.5,9.4-8.9,14.1-13.4c0.3-0.3,0.4-0.5,0.2-0.9
			c-0.6-1.4-0.3-2.8,0.7-3.8c1.2-1.4,2.6-2.7,4-4C34.5,12.1,35,12.1,35.8,12.7z"/>
	</g>
	<g>
		<path fill="#FFFFFF" d="M23.8,24.7c-0.6,0.6-1.2,1.2-1.9,1.8c-0.2-0.1-0.3-0.2-0.4-0.4c-0.7-0.7-1.4-1.4-2-2.2
			c-0.6-0.7-1.2-1.3-2.3-0.8c-0.8,0.3-1.8,0.1-2.6-0.4c-2.4-1.4-3.7-3.6-4-6.3c-0.2-2.1,1.2-3.4,3.3-3.1c2.4,0.4,4.4,1.5,5.8,3.5
			c0.8,1.2,1,2.5,0.5,4c-0.1,0.2,0.1,0.5,0.2,0.7C21.5,22.6,22.6,23.6,23.8,24.7z"/>
	</g>
	<g>
		<path fill="#FFFFFF" d="M25.4,30.2c0.6-0.7,1.3-1.3,1.9-2c0.2,0.1,0.3,0.2,0.4,0.4c2.3,2.1,4.5,4.3,6.8,6.4
			c0.5,0.5,0.5,0.9,0.2,1.4c-0.2,0.4-0.5,0.7-0.9,1c-0.7,0.6-1.2,0.6-1.9-0.1c-2.1-2.2-4.2-4.4-6.2-6.6
			C25.6,30.5,25.5,30.4,25.4,30.2z"/>
	</g>
</g>
</svg>
