<?xml version="1.0" encoding="utf-8"?>
<!-- Generator: Adobe Illustrator 17.1.0, SVG Export Plug-In . SVG Version: 6.00 Build 0)  -->
<!DOCTYPE svg PUBLIC "-//W3C//DTD SVG 1.1//EN" "http://www.w3.org/Graphics/SVG/1.1/DTD/svg11.dtd">
<svg version="1.1" id="Layer_1" xmlns="http://www.w3.org/2000/svg" xmlns:xlink="http://www.w3.org/1999/xlink" x="0px" y="0px"
	 viewBox="0 0 50 50" enable-background="new 0 0 50 50" xml:space="preserve">
<g>
	<g>
		<path fill="#FFFFFF" d="M25.2,49.6c-13.5,0-24.6-11-24.6-24.6s11-24.6,24.6-24.6c13.5,0,24.6,11,24.6,24.6S38.8,49.6,25.2,49.6z
			 M25.2,4.4C13.9,4.4,4.7,13.7,4.7,25c0,11.3,9.2,20.6,20.6,20.6S45.8,36.3,45.8,25C45.8,13.7,36.6,4.4,25.2,4.4z"/>
	</g>
	<g>
		<polygon fill="#FFFFFF" points="25.5,23 21.1,11.9 27,11.5 		"/>
		<path fill="#FFFFFF" d="M25.5,24.5c-0.6,0-1.2-0.4-1.4-1l-4.3-11.2c-0.2-0.4-0.1-0.9,0.1-1.4c0.3-0.4,0.7-0.7,1.2-0.7l5.9-0.4
			c0.4,0,0.9,0.1,1.2,0.5c0.3,0.3,0.4,0.8,0.4,1.2L27,23.2c-0.1,0.7-0.6,1.2-1.3,1.3C25.6,24.5,25.5,24.5,25.5,24.5z M23.3,13.2
			l1.5,3.8l0.5-3.9L23.3,13.2z"/>
	</g>
	<g>
		<polygon fill="#FFFFFF" points="28.8,25.8 37.3,19.1 38.8,24.8 		"/>
		<path fill="#FFFFFF" d="M28.8,27.3c-0.6,0-1.2-0.4-1.4-0.9c-0.3-0.6-0.1-1.3,0.5-1.7l8.5-6.7c0.4-0.3,0.9-0.4,1.4-0.2
			c0.5,0.2,0.8,0.5,1,1l1.6,5.7c0.1,0.4,0,0.9-0.2,1.2c-0.2,0.4-0.6,0.6-1.1,0.6l-10,1C28.9,27.3,28.9,27.3,28.8,27.3z M36.4,21.7
			l-2.6,2.1l3.1-0.3L36.4,21.7z"/>
	</g>
	<g>
		<polygon fill="#FFFFFF" points="28,30 35.9,34.1 31.4,37.9 		"/>
		<path fill="#FFFFFF" d="M31.4,39.4c-0.1,0-0.2,0-0.3,0c-0.5-0.1-0.8-0.4-1-0.9l-3.4-7.8c-0.2-0.6-0.1-1.3,0.4-1.7s1.1-0.5,1.7-0.2
			l7.9,4.1c0.4,0.2,0.7,0.7,0.8,1.2s-0.1,1-0.5,1.3L32.3,39C32.1,39.2,31.7,39.4,31.4,39.4z M31,33.3l0.9,2.1l1.2-1L31,33.3z"/>
	</g>
	<g>
		<polygon fill="#FFFFFF" points="23.6,30.3 22.3,38.5 17.1,34.6 		"/>
		<path fill="#FFFFFF" d="M22.3,40c-0.3,0-0.6-0.1-0.9-0.3l-5.3-3.9c-0.4-0.3-0.6-0.8-0.6-1.2s0.3-0.9,0.7-1.2l6.6-4.3
			c0.5-0.3,1.1-0.3,1.6,0c0.5,0.3,0.8,0.9,0.7,1.5l-1.3,8.2c-0.1,0.5-0.4,1-0.9,1.1C22.7,39.9,22.5,40,22.3,40z M19.7,34.7l1.6,1.1
			l0.4-2.4L19.7,34.7z"/>
	</g>
	<g>
		<polygon fill="#FFFFFF" points="22.6,25.8 11.5,24.9 14,19.6 		"/>
		<path fill="#FFFFFF" d="M22.6,27.3c0,0-0.1,0-0.1,0l-11.1-0.9c-0.5,0-0.9-0.3-1.2-0.8c-0.2-0.4-0.3-1,0-1.4l2.6-5.3
			c0.2-0.4,0.6-0.7,1-0.8c0.4-0.1,0.9,0,1.2,0.2l8.4,6.1c0.5,0.3,0.8,0.7,0.8,1.3C24.1,26.6,23.4,27.3,22.6,27.3
			C22.6,27.3,22.6,27.3,22.6,27.3z M13.8,23.6l3.6,0.3l-2.8-2L13.8,23.6z"/>
	</g>
</g>
</svg>
