<?xml version="1.0" encoding="utf-8"?>
<!-- Generator: Adobe Illustrator 17.1.0, SVG Export Plug-In . SVG Version: 6.00 Build 0)  -->
<!DOCTYPE svg PUBLIC "-//W3C//DTD SVG 1.1//EN" "http://www.w3.org/Graphics/SVG/1.1/DTD/svg11.dtd">
<svg version="1.1" id="Layer_1" xmlns="http://www.w3.org/2000/svg" xmlns:xlink="http://www.w3.org/1999/xlink" x="0px" y="0px"
	 viewBox="0 0 50 50" enable-background="new 0 0 50 50" xml:space="preserve">
<g>
	<path fill="#FFFFFF" d="M25,49.5c-13.5,0-24.5-11-24.5-24.5S11.5,0.5,25,0.5s24.5,11,24.5,24.5S38.5,49.5,25,49.5z M25,4.5
		C13.7,4.5,4.5,13.7,4.5,25c0,11.3,9.2,20.5,20.5,20.5c11.3,0,20.5-9.2,20.5-20.5C45.5,13.7,36.3,4.5,25,4.5z"/>
</g>
<g>
	<path fill="#FFFFFF" d="M30.6,13.8c2.3,2.4,3.7,5.6,3.7,9.2c0,7.3-5.9,13.2-13.2,13.2c-1.5,0-3-0.3-4.3-0.7c2.4,2.5,5.8,4,9.5,4
		c7.3,0,13.2-5.9,13.2-13.2C39.5,20.5,35.8,15.6,30.6,13.8z"/>
</g>
<polygon fill="#FFFFFF" points="16.8,20.2 18.5,23.2 21.8,23.9 19.5,26.4 19.9,29.8 16.8,28.4 13.7,29.8 14,26.4 11.7,23.9 
	15.1,23.2 "/>
<polygon fill="#FFFFFF" points="13.6,11.6 14.7,13.5 16.8,13.9 15.3,15.5 15.6,17.6 13.6,16.7 11.7,17.6 11.9,15.5 10.5,13.9 
	12.6,13.5 "/>
<polygon fill="#FFFFFF" points="24.9,14.3 26,16.1 28.1,16.5 26.6,18.1 26.9,20.2 24.9,19.3 23,20.2 23.2,18.1 21.8,16.5 23.9,16.1 
	"/>
</svg>
